<svg xmlns="http://www.w3.org/2000/svg" xmlns:xlink="http://www.w3.org/1999/xlink" width="850" zoomAndPan="magnify" viewBox="0 0 637.5 542.249967" height="723" preserveAspectRatio="xMidYMid meet" version="1.0"><defs><filter x="0%" y="0%" width="100%" height="100%" id="859b9626b0"><feColorMatrix values="0 0 0 0 1 0 0 0 0 1 0 0 0 0 1 0 0 0 1 0" color-interpolation-filters="sRGB"/></filter><g/><clipPath id="47cc45998e"><path d="M 29 0 L 625 0 L 625 541.5 L 29 541.5 Z M 29 0 " clip-rule="nonzero"/></clipPath><mask id="3d1f9a925f"><g filter="url(#859b9626b0)"><rect x="-63.75" width="765" fill="#000000" y="-54.224997" height="650.69996" fill-opacity="0.8"/></g></mask><clipPath id="91ca8adb62"><rect x="0" width="596" y="0" height="542"/></clipPath></defs><g clip-path="url(#47cc45998e)"><g mask="url(#3d1f9a925f)"><g transform="matrix(1, 0, 0, 1, 29, -0.000000000000009896)"><g clip-path="url(#91ca8adb62)"><g fill="#ffffff" fill-opacity="1"><g transform="translate(1.372005, 300.7325)"><g><path d="M 159.203125 10.8125 C 161.796875 9.082031 164.390625 5.765625 166.984375 0.859375 C 169.578125 -4.035156 171.882812 -9.296875 173.90625 -14.921875 C 175.925781 -20.546875 177.515625 -25.085938 178.671875 -28.546875 C 187.035156 -49.890625 194.601562 -71.015625 201.375 -91.921875 C 208.15625 -112.835938 215.875 -134.253906 224.53125 -156.171875 C 225.96875 -159.921875 228.488281 -166.046875 232.09375 -174.546875 C 235.695312 -183.054688 239.953125 -192.71875 244.859375 -203.53125 C 249.765625 -214.351562 255.171875 -225.316406 261.078125 -236.421875 C 266.992188 -247.523438 273.050781 -257.832031 279.25 -267.34375 C 285.445312 -276.863281 291.5 -284.578125 297.40625 -290.484375 C 303.320312 -296.398438 308.734375 -299.359375 313.640625 -299.359375 C 320.273438 -299.359375 325.175781 -296.113281 328.34375 -289.625 C 331.519531 -283.132812 333.320312 -274.988281 333.75 -265.1875 C 334.1875 -255.382812 333.972656 -245.21875 333.109375 -234.6875 C 332.242188 -224.164062 331.234375 -214.789062 330.078125 -206.5625 C 328.921875 -198.34375 328.054688 -192.796875 327.484375 -189.921875 L 300.65625 -11.25 C 296.039062 20.757812 292.507812 52.050781 290.0625 82.625 C 287.613281 113.195312 284.660156 144.054688 281.203125 175.203125 C 280.617188 182.992188 280.328125 191.503906 280.328125 200.734375 C 280.328125 209.960938 280.328125 218.613281 280.328125 226.6875 C 280.328125 230.4375 279.675781 233.25 278.375 235.125 C 277.082031 237 275.71875 237.9375 274.28125 237.9375 C 272.539062 237.9375 270.878906 236.925781 269.296875 234.90625 C 267.710938 232.882812 266.773438 230.144531 266.484375 226.6875 C 266.203125 222.9375 266.0625 220.125 266.0625 218.25 C 266.0625 216.375 265.914062 214.140625 265.625 211.546875 L 278.59375 18.609375 C 280.90625 0.429688 283 -16.367188 284.875 -31.796875 C 286.75 -47.222656 288.765625 -62.796875 290.921875 -78.515625 C 293.085938 -94.234375 295.757812 -111.609375 298.9375 -130.640625 C 299.800781 -135.546875 301.097656 -143.191406 302.828125 -153.578125 C 304.554688 -163.960938 306.429688 -175.640625 308.453125 -188.609375 C 310.472656 -201.585938 312.273438 -214.566406 313.859375 -227.546875 C 315.441406 -240.523438 316.304688 -252.0625 316.453125 -262.15625 C 316.597656 -272.25 315.660156 -279.460938 313.640625 -283.796875 C 308.160156 -280.910156 303.039062 -276.363281 298.28125 -270.15625 C 293.519531 -263.957031 289.554688 -257.976562 286.390625 -252.21875 C 280.617188 -242.695312 275.640625 -233.96875 271.453125 -226.03125 C 267.273438 -218.101562 263.3125 -210.101562 259.5625 -202.03125 C 255.8125 -193.957031 251.628906 -184.726562 247.015625 -174.34375 C 239.804688 -158.476562 234.035156 -144.054688 229.703125 -131.078125 C 225.378906 -118.097656 220.335938 -104.398438 214.578125 -89.984375 C 213.128906 -86.234375 211.035156 -79.816406 208.296875 -70.734375 C 205.554688 -61.648438 202.3125 -51.554688 198.5625 -40.453125 C 194.8125 -29.347656 190.773438 -18.675781 186.453125 -8.4375 C 182.128906 1.800781 177.660156 10.304688 173.046875 17.078125 C 168.429688 23.859375 163.816406 27.25 159.203125 27.25 C 154.585938 27.25 150.976562 24.722656 148.375 19.671875 C 145.78125 14.628906 143.976562 8.359375 142.96875 0.859375 C 141.96875 -6.628906 141.46875 -14.125 141.46875 -21.625 C 141.46875 -29.125 141.609375 -35.179688 141.890625 -39.796875 L 148.390625 -126.328125 C 148.390625 -128.054688 148.242188 -130 147.953125 -132.15625 C 147.660156 -134.320312 147.515625 -136.992188 147.515625 -140.171875 C 144.921875 -139.585938 143.332031 -138.863281 142.75 -138 C 142.175781 -137.132812 141.171875 -135.691406 139.734375 -133.671875 C 133.671875 -125.597656 127.972656 -115.71875 122.640625 -104.03125 C 117.304688 -92.351562 112.332031 -79.953125 107.71875 -66.828125 C 103.101562 -53.710938 99.066406 -40.953125 95.609375 -28.546875 C 92.148438 -16.148438 89.265625 -5.335938 86.953125 3.890625 C 83.492188 17.441406 80.101562 31.210938 76.78125 45.203125 C 73.46875 59.191406 69.9375 72.53125 66.1875 85.21875 C 63.882812 95.03125 61.144531 104.691406 57.96875 114.203125 C 54.800781 123.722656 51.195312 133.242188 47.15625 142.765625 C 45.132812 146.222656 43.1875 148.960938 41.3125 150.984375 C 39.4375 153.003906 36.335938 154.015625 32.015625 154.015625 C 27.109375 154.015625 22.925781 150.335938 19.46875 142.984375 C 16.007812 135.628906 13.269531 126.179688 11.25 114.640625 C 9.226562 103.109375 7.710938 91.066406 6.703125 78.515625 C 5.691406 65.972656 5.039062 54.289062 4.75 43.46875 C 4.46875 32.65625 4.328125 24.507812 4.328125 19.03125 L 8.65625 -68.359375 C 10.09375 -81.910156 11.675781 -95.390625 13.40625 -108.796875 C 15.132812 -122.210938 17.007812 -135.550781 19.03125 -148.8125 C 19.320312 -150.257812 20.039062 -154.660156 21.1875 -162.015625 C 22.34375 -169.367188 24.003906 -178.378906 26.171875 -189.046875 C 28.335938 -199.722656 30.71875 -210.898438 33.3125 -222.578125 C 35.90625 -234.253906 38.644531 -245.210938 41.53125 -255.453125 C 44.414062 -265.691406 47.367188 -273.984375 50.390625 -280.328125 C 53.421875 -286.671875 56.378906 -289.84375 59.265625 -289.84375 C 63.304688 -289.84375 65.539062 -288.398438 65.96875 -285.515625 C 66.40625 -282.640625 66.046875 -279.253906 64.890625 -275.359375 C 63.734375 -271.460938 62.722656 -268.070312 61.859375 -265.1875 C 57.242188 -248.75 53.492188 -233.820312 50.609375 -220.40625 C 47.734375 -207 45.066406 -193.445312 42.609375 -179.75 C 40.160156 -166.050781 37.640625 -150.40625 35.046875 -132.8125 C 32.734375 -116.945312 30.566406 -98.488281 28.546875 -77.4375 C 26.535156 -56.382812 24.878906 -34.25 23.578125 -11.03125 C 22.273438 12.1875 21.910156 34.753906 22.484375 56.671875 C 23.066406 78.585938 24.800781 98.34375 27.6875 115.9375 L 32.015625 137.140625 C 34.316406 136.554688 35.753906 135.613281 36.328125 134.3125 C 36.910156 133.019531 37.78125 131.222656 38.9375 128.921875 L 49.3125 97.765625 C 55.945312 74.117188 62.4375 49.601562 68.78125 24.21875 C 75.125 -1.15625 82.117188 -26.023438 89.765625 -50.390625 C 97.410156 -74.765625 106.28125 -97.335938 116.375 -118.109375 C 119.257812 -123.585938 122.644531 -129.859375 126.53125 -136.921875 C 130.425781 -143.984375 134.679688 -148.957031 139.296875 -151.84375 C 141.890625 -153.570312 144.773438 -154.4375 147.953125 -154.4375 C 152.859375 -154.4375 156.175781 -152.421875 157.90625 -148.390625 C 160.207031 -144.347656 161.503906 -136.988281 161.796875 -126.3125 C 162.085938 -115.644531 161.800781 -103.675781 160.9375 -90.40625 C 160.070312 -77.144531 159.203125 -64.3125 158.328125 -51.90625 C 157.460938 -39.507812 157.03125 -29.5625 157.03125 -22.0625 C 157.03125 -13.40625 157.390625 -6.914062 158.109375 -2.59375 C 158.835938 1.726562 159.203125 6.195312 159.203125 10.8125 Z M 159.203125 10.8125 "/></g></g></g><g fill="#ffffff" fill-opacity="1"><g transform="translate(332.323108, 300.7325)"><g><path d="M 23.359375 -12.546875 C 23.359375 -16.867188 24.800781 -20.113281 27.6875 -22.28125 C 30.570312 -24.445312 33.457031 -25.53125 36.34375 -25.53125 C 39.507812 -25.53125 42.175781 -24.519531 44.34375 -22.5 C 46.507812 -20.476562 47.300781 -17.445312 46.71875 -13.40625 C 46.4375 -9.375 45.066406 -6.347656 42.609375 -4.328125 C 40.160156 -2.304688 37.492188 -1.296875 34.609375 -1.296875 C 31.722656 -1.296875 29.125 -2.304688 26.8125 -4.328125 C 24.507812 -6.347656 23.359375 -9.085938 23.359375 -12.546875 Z M 23.359375 -12.546875 "/></g></g></g><g fill="#ffffff" fill-opacity="1"><g transform="translate(402.406871, 300.7325)"><g><path d="M -121.5625 -192.9375 C -121.5625 -196.6875 -118.097656 -200.648438 -111.171875 -204.828125 C -104.253906 -209.015625 -95.53125 -213.125 -85 -217.15625 C -74.476562 -221.195312 -63.375 -225.019531 -51.6875 -228.625 C -40.007812 -232.238281 -29.269531 -235.34375 -19.46875 -237.9375 C -9.664062 -240.53125 -2.3125 -242.546875 2.59375 -243.984375 C 8.65625 -245.722656 12.910156 -246.734375 15.359375 -247.015625 C 17.804688 -247.304688 19.390625 -248.242188 20.109375 -249.828125 C 20.835938 -251.421875 21.632812 -254.664062 22.5 -259.5625 C 24.800781 -271.382812 27.46875 -279.53125 30.5 -284 C 33.53125 -288.476562 36.488281 -290.71875 39.375 -290.71875 C 41.675781 -290.71875 43.617188 -289.488281 45.203125 -287.03125 C 46.796875 -284.582031 47.59375 -281.628906 47.59375 -278.171875 C 47.59375 -275.578125 47.445312 -274.492188 47.15625 -274.921875 C 46.863281 -275.359375 46.863281 -274.421875 47.15625 -272.109375 C 47.15625 -271.535156 47.226562 -270.816406 47.375 -269.953125 C 47.519531 -269.085938 47.59375 -267.929688 47.59375 -266.484375 C 47.59375 -262.734375 46.867188 -260.859375 45.421875 -260.859375 C 43.984375 -260.859375 42.539062 -260.640625 41.09375 -260.203125 C 39.65625 -259.773438 38.9375 -257.253906 38.9375 -252.640625 C 42.394531 -252.640625 46.210938 -253.144531 50.390625 -254.15625 C 54.578125 -255.164062 58.257812 -255.816406 61.4375 -256.109375 C 74.125 -258.410156 86.8125 -260.5 99.5 -262.375 C 112.1875 -264.25 125.164062 -265.1875 138.4375 -265.1875 C 145.351562 -265.1875 150.394531 -263.742188 153.5625 -260.859375 C 156.738281 -257.972656 157.894531 -255.085938 157.03125 -252.203125 C 156.164062 -249.328125 152.992188 -247.890625 147.515625 -247.890625 C 146.941406 -250.191406 146.582031 -251.269531 146.4375 -251.125 C 146.289062 -250.976562 144.921875 -251.195312 142.328125 -251.78125 C 141.171875 -252.070312 138.863281 -252.21875 135.40625 -252.21875 C 129.351562 -252.21875 121.347656 -251.566406 111.390625 -250.265625 C 101.441406 -248.960938 91.128906 -247.445312 80.453125 -245.71875 C 69.785156 -243.988281 60.269531 -242.332031 51.90625 -240.75 C 43.550781 -239.164062 38.070312 -238.082031 35.46875 -237.5 L 26.828125 -148.8125 C 26.535156 -146.800781 26.460938 -144.640625 26.609375 -142.328125 C 26.753906 -140.023438 26.828125 -137.71875 26.828125 -135.40625 C 26.828125 -132.519531 26.609375 -130.644531 26.171875 -129.78125 C 25.742188 -128.914062 25.53125 -126.894531 25.53125 -123.71875 C 25.53125 -117.375 25.671875 -110.09375 25.953125 -101.875 C 26.242188 -93.65625 26.101562 -87.238281 25.53125 -82.625 C 25.238281 -80.03125 25.019531 -74.910156 24.875 -67.265625 C 24.726562 -59.628906 24.582031 -50.765625 24.4375 -40.671875 C 24.289062 -30.578125 24.21875 -20.410156 24.21875 -10.171875 C 24.21875 0.0664062 24.21875 9.367188 24.21875 17.734375 C 24.21875 26.097656 24.363281 32.15625 24.65625 35.90625 C 24.65625 39.082031 25.015625 43.910156 25.734375 50.390625 C 26.460938 56.878906 26.609375 62.71875 26.171875 67.90625 C 25.742188 73.101562 23.65625 75.703125 19.90625 75.703125 C 14.425781 75.703125 11.109375 72.671875 9.953125 66.609375 C 8.796875 60.554688 8.21875 54.9375 8.21875 49.75 C 7.351562 39.363281 6.847656 27.25 6.703125 13.40625 C 6.554688 -0.4375 6.554688 -14.28125 6.703125 -28.125 C 6.847656 -41.96875 6.921875 -54.078125 6.921875 -64.453125 L 8.21875 -84.796875 C 8.21875 -88.828125 8.21875 -95.023438 8.21875 -103.390625 C 8.21875 -111.753906 8.359375 -120.625 8.640625 -130 C 8.929688 -139.375 9.222656 -147.953125 9.515625 -155.734375 C 9.804688 -163.523438 10.238281 -169.003906 10.8125 -172.171875 C 11.394531 -175.054688 11.753906 -178.519531 11.890625 -182.5625 C 12.035156 -186.601562 12.253906 -190.0625 12.546875 -192.9375 L 16.4375 -233.171875 C 15.28125 -232.890625 12.753906 -232.3125 8.859375 -231.4375 C 4.972656 -230.570312 1.875 -229.851562 -0.4375 -229.28125 C -14.5625 -225.820312 -28.039062 -222.144531 -40.875 -218.25 C -53.707031 -214.351562 -66.90625 -209.8125 -80.46875 -204.625 C -83.0625 -203.46875 -85.4375 -202.238281 -87.59375 -200.9375 C -89.757812 -199.644531 -92.140625 -198.421875 -94.734375 -197.265625 C -98.203125 -195.828125 -100.441406 -194.816406 -101.453125 -194.234375 C -102.460938 -193.660156 -102.96875 -192.941406 -102.96875 -192.078125 C -102.96875 -191.210938 -103.6875 -189.335938 -105.125 -186.453125 C -106.28125 -186.160156 -107.429688 -185.941406 -108.578125 -185.796875 C -109.734375 -185.660156 -111.035156 -185.59375 -112.484375 -185.59375 C -114.785156 -185.59375 -116.875 -186.097656 -118.75 -187.109375 C -120.625 -188.117188 -121.5625 -190.0625 -121.5625 -192.9375 Z M -121.5625 -192.9375 "/></g></g></g><g fill="#ffffff" fill-opacity="1"><g transform="translate(452.590245, 300.7325)"><g><path d="M 5.1875 71.375 C 5.1875 77.4375 7.0625 80.46875 10.8125 80.46875 C 12.832031 80.46875 14.992188 79.742188 17.296875 78.296875 C 19.609375 76.859375 21.484375 75.5625 22.921875 74.40625 C 28.691406 70.082031 33.8125 63.519531 38.28125 54.71875 C 42.75 45.925781 45.992188 37.925781 48.015625 30.71875 C 49.460938 25.8125 50.253906 20.832031 50.390625 15.78125 C 50.535156 10.738281 50.609375 5.191406 50.609375 -0.859375 C 47.148438 1.148438 43.1875 4.675781 38.71875 9.71875 C 34.25 14.769531 30.71875 18.882812 28.125 22.0625 C 22.925781 28.40625 17.800781 36.046875 12.75 44.984375 C 7.707031 53.929688 5.1875 62.726562 5.1875 71.375 Z M 1.296875 -70.078125 C 1.296875 -77.578125 3.3125 -84.28125 7.34375 -90.1875 C 11.382812 -96.101562 16.21875 -100.863281 21.84375 -104.46875 C 27.46875 -108.070312 32.300781 -109.875 36.34375 -109.875 C 39.507812 -109.875 41.882812 -108.722656 43.46875 -106.421875 C 45.0625 -104.117188 45.132812 -100.222656 43.6875 -94.734375 C 40.226562 -93.867188 37.773438 -93.363281 36.328125 -93.21875 C 34.890625 -93.082031 33.738281 -92.648438 32.875 -91.921875 C 32.007812 -91.203125 30.425781 -89.546875 28.125 -86.953125 C 22.351562 -80.609375 19.679688 -75.488281 20.109375 -71.59375 C 20.546875 -67.695312 22.851562 -64.09375 27.03125 -60.78125 C 31.21875 -57.46875 36.410156 -53.359375 42.609375 -48.453125 C 48.804688 -43.546875 54.644531 -36.910156 60.125 -28.546875 C 66.476562 -32.878906 72.96875 -37.925781 79.59375 -43.6875 L 119.828125 -71.8125 C 123.578125 -74.40625 126.820312 -76.207031 129.5625 -77.21875 C 132.300781 -78.226562 134.679688 -78.734375 136.703125 -78.734375 C 140.160156 -78.734375 141.601562 -77.289062 141.03125 -74.40625 C 140.457031 -71.519531 137.71875 -68.632812 132.8125 -65.75 L 103.390625 -45.421875 C 102.234375 -44.847656 99.78125 -43.191406 96.03125 -40.453125 C 92.289062 -37.710938 88.179688 -34.679688 83.703125 -31.359375 C 79.234375 -28.046875 75.410156 -24.945312 72.234375 -22.0625 C 69.066406 -19.175781 67.335938 -17.300781 67.046875 -16.4375 C 66.765625 -15 67.195312 -12.257812 68.34375 -8.21875 C 69.5 -4.175781 70.289062 1.082031 70.71875 7.5625 C 71.15625 14.050781 70.289062 21.984375 68.125 31.359375 C 65.96875 40.734375 61.285156 51.625 54.078125 64.03125 C 47.734375 74.695312 40.8125 82.550781 33.3125 87.59375 C 25.8125 92.644531 18.742188 95.171875 12.109375 95.171875 C 6.054688 95.171875 1.082031 93.148438 -2.8125 89.109375 C -6.707031 85.078125 -8.65625 79.164062 -8.65625 71.375 C -8.65625 61.570312 -6.273438 52.054688 -1.515625 42.828125 C 3.242188 33.597656 8.941406 25.085938 15.578125 17.296875 C 22.210938 9.515625 28.335938 2.8125 33.953125 -2.8125 C 39.578125 -8.4375 43.253906 -12.546875 44.984375 -15.140625 C 41.523438 -21.191406 37.34375 -26.453125 32.4375 -30.921875 C 27.539062 -35.398438 22.710938 -39.515625 17.953125 -43.265625 C 13.191406 -47.015625 9.222656 -50.976562 6.046875 -55.15625 C 2.878906 -59.34375 1.296875 -64.316406 1.296875 -70.078125 Z M 1.296875 -70.078125 "/></g></g></g></g></g></g></g><g fill="#004aad" fill-opacity="1"><g transform="translate(128.270963, 268.030087)"><g><path d="M 74.359375 5.046875 C 75.566406 4.242188 76.773438 2.695312 77.984375 0.40625 C 79.203125 -1.882812 80.28125 -4.34375 81.21875 -6.96875 C 82.164062 -9.59375 82.910156 -11.710938 83.453125 -13.328125 C 87.359375 -23.296875 90.890625 -33.160156 94.046875 -42.921875 C 97.210938 -52.691406 100.816406 -62.695312 104.859375 -72.9375 C 105.535156 -74.6875 106.710938 -77.546875 108.390625 -81.515625 C 110.078125 -85.492188 112.066406 -90.007812 114.359375 -95.0625 C 116.648438 -100.113281 119.175781 -105.234375 121.9375 -110.421875 C 124.695312 -115.609375 127.523438 -120.421875 130.421875 -124.859375 C 133.316406 -129.304688 136.144531 -132.910156 138.90625 -135.671875 C 141.664062 -138.429688 144.191406 -139.8125 146.484375 -139.8125 C 149.578125 -139.8125 151.863281 -138.296875 153.34375 -135.265625 C 154.832031 -132.234375 155.675781 -128.425781 155.875 -123.84375 C 156.082031 -119.269531 155.984375 -114.523438 155.578125 -109.609375 C 155.171875 -104.691406 154.695312 -100.3125 154.15625 -96.46875 C 153.625 -92.632812 153.222656 -90.046875 152.953125 -88.703125 L 140.421875 -5.25 C 138.265625 9.695312 136.613281 24.3125 135.46875 38.59375 C 134.320312 52.875 132.941406 67.285156 131.328125 81.828125 C 131.054688 85.460938 130.921875 89.4375 130.921875 93.75 C 130.921875 98.0625 130.921875 102.101562 130.921875 105.875 C 130.921875 107.625 130.617188 108.9375 130.015625 109.8125 C 129.410156 110.6875 128.769531 111.125 128.09375 111.125 C 127.289062 111.125 126.515625 110.648438 125.765625 109.703125 C 125.023438 108.765625 124.585938 107.488281 124.453125 105.875 C 124.328125 104.125 124.265625 102.8125 124.265625 101.9375 C 124.265625 101.0625 124.195312 100.015625 124.0625 98.796875 L 130.125 8.6875 C 131.195312 0.195312 132.171875 -7.644531 133.046875 -14.84375 C 133.921875 -22.050781 134.863281 -29.328125 135.875 -36.671875 C 136.882812 -44.015625 138.128906 -52.128906 139.609375 -61.015625 C 140.015625 -63.304688 140.617188 -66.875 141.421875 -71.71875 C 142.234375 -76.570312 143.109375 -82.03125 144.046875 -88.09375 C 144.992188 -94.15625 145.835938 -100.21875 146.578125 -106.28125 C 147.328125 -112.34375 147.734375 -117.726562 147.796875 -122.4375 C 147.859375 -127.15625 147.421875 -130.523438 146.484375 -132.546875 C 143.921875 -131.191406 141.53125 -129.066406 139.3125 -126.171875 C 137.09375 -123.273438 135.238281 -120.484375 133.75 -117.796875 C 131.0625 -113.347656 128.738281 -109.269531 126.78125 -105.5625 C 124.832031 -101.863281 122.976562 -98.128906 121.21875 -94.359375 C 119.46875 -90.585938 117.519531 -86.273438 115.375 -81.421875 C 112 -74.015625 109.300781 -67.28125 107.28125 -61.21875 C 105.257812 -55.15625 102.90625 -48.757812 100.21875 -42.03125 C 99.539062 -40.28125 98.5625 -37.28125 97.28125 -33.03125 C 96 -28.789062 94.484375 -24.078125 92.734375 -18.890625 C 90.984375 -13.703125 89.097656 -8.71875 87.078125 -3.9375 C 85.054688 0.84375 82.96875 4.816406 80.8125 7.984375 C 78.664062 11.148438 76.515625 12.734375 74.359375 12.734375 C 72.203125 12.734375 70.515625 11.550781 69.296875 9.1875 C 68.085938 6.832031 67.242188 3.90625 66.765625 0.40625 C 66.296875 -3.09375 66.0625 -6.59375 66.0625 -10.09375 C 66.0625 -13.601562 66.128906 -16.4375 66.265625 -18.59375 L 69.296875 -59 C 69.296875 -59.800781 69.226562 -60.707031 69.09375 -61.71875 C 68.957031 -62.726562 68.890625 -63.976562 68.890625 -65.46875 C 67.679688 -65.195312 66.941406 -64.859375 66.671875 -64.453125 C 66.398438 -64.046875 65.929688 -63.375 65.265625 -62.4375 C 62.429688 -58.664062 59.769531 -54.050781 57.28125 -48.59375 C 54.789062 -43.132812 52.46875 -37.335938 50.3125 -31.203125 C 48.15625 -25.078125 46.269531 -19.117188 44.65625 -13.328125 C 43.039062 -7.535156 41.691406 -2.488281 40.609375 1.8125 C 38.992188 8.144531 37.410156 14.578125 35.859375 21.109375 C 34.316406 27.640625 32.664062 33.867188 30.90625 39.796875 C 29.832031 44.378906 28.554688 48.894531 27.078125 53.34375 C 25.597656 57.789062 23.910156 62.234375 22.015625 66.671875 C 21.078125 68.285156 20.171875 69.5625 19.296875 70.5 C 18.421875 71.445312 16.972656 71.921875 14.953125 71.921875 C 12.660156 71.921875 10.707031 70.203125 9.09375 66.765625 C 7.476562 63.335938 6.195312 58.925781 5.25 53.53125 C 4.3125 48.144531 3.601562 42.519531 3.125 36.65625 C 2.65625 30.800781 2.351562 25.347656 2.21875 20.296875 C 2.082031 15.253906 2.015625 11.453125 2.015625 8.890625 L 4.046875 -31.921875 C 4.710938 -38.253906 5.445312 -44.550781 6.25 -50.8125 C 7.0625 -57.070312 7.941406 -63.300781 8.890625 -69.5 C 9.023438 -70.175781 9.359375 -72.226562 9.890625 -75.65625 C 10.429688 -79.09375 11.207031 -83.300781 12.21875 -88.28125 C 13.226562 -93.269531 14.335938 -98.492188 15.546875 -103.953125 C 16.765625 -109.410156 18.046875 -114.53125 19.390625 -119.3125 C 20.742188 -124.09375 22.125 -127.960938 23.53125 -130.921875 C 24.945312 -133.890625 26.332031 -135.375 27.6875 -135.375 C 29.570312 -135.375 30.613281 -134.695312 30.8125 -133.34375 C 31.007812 -132 30.835938 -130.414062 30.296875 -128.59375 C 29.765625 -126.78125 29.296875 -125.203125 28.890625 -123.859375 C 26.734375 -116.179688 24.984375 -109.207031 23.640625 -102.9375 C 22.296875 -96.675781 21.050781 -90.347656 19.90625 -83.953125 C 18.757812 -77.554688 17.578125 -70.25 16.359375 -62.03125 C 15.285156 -54.625 14.273438 -46.003906 13.328125 -36.171875 C 12.390625 -26.335938 11.617188 -16 11.015625 -5.15625 C 10.410156 5.6875 10.238281 16.226562 10.5 26.46875 C 10.769531 36.707031 11.582031 45.9375 12.9375 54.15625 L 14.953125 64.046875 C 16.023438 63.773438 16.695312 63.335938 16.96875 62.734375 C 17.238281 62.128906 17.644531 61.285156 18.1875 60.203125 L 23.03125 45.65625 C 26.132812 34.613281 29.164062 23.164062 32.125 11.3125 C 35.09375 -0.539062 38.359375 -12.15625 41.921875 -23.53125 C 45.492188 -34.914062 49.632812 -45.457031 54.34375 -55.15625 C 55.695312 -57.71875 57.28125 -60.644531 59.09375 -63.9375 C 60.914062 -67.238281 62.90625 -69.566406 65.0625 -70.921875 C 66.269531 -71.722656 67.613281 -72.125 69.09375 -72.125 C 71.382812 -72.125 72.9375 -71.179688 73.75 -69.296875 C 74.820312 -67.410156 75.425781 -63.972656 75.5625 -58.984375 C 75.695312 -54.003906 75.5625 -48.414062 75.15625 -42.21875 C 74.757812 -36.03125 74.359375 -30.039062 73.953125 -24.25 C 73.546875 -18.457031 73.34375 -13.804688 73.34375 -10.296875 C 73.34375 -6.265625 73.507812 -3.238281 73.84375 -1.21875 C 74.1875 0.800781 74.359375 2.890625 74.359375 5.046875 Z M 74.359375 5.046875 "/></g></g></g><g fill="#004aad" fill-opacity="1"><g transform="translate(282.824225, 268.030087)"><g><path d="M 0 -20.40625 C 0 -23.238281 0.671875 -26.738281 2.015625 -30.90625 C 3.367188 -35.082031 5.253906 -39.222656 7.671875 -43.328125 C 10.097656 -47.441406 12.894531 -50.84375 16.0625 -53.53125 C 19.226562 -56.226562 22.5625 -57.578125 26.0625 -57.578125 C 29.289062 -57.578125 31.914062 -56.632812 33.9375 -54.75 C 35.957031 -52.863281 37.171875 -50.941406 37.578125 -48.984375 C 37.984375 -47.035156 37.3125 -46.0625 35.5625 -46.0625 C 34.21875 -46.0625 32.835938 -46.835938 31.421875 -48.390625 C 30.003906 -49.941406 28.351562 -50.71875 26.46875 -50.71875 C 24.988281 -50.71875 23.203125 -49.835938 21.109375 -48.078125 C 19.023438 -46.328125 16.5 -42.894531 13.53125 -37.78125 C 12.1875 -35.625 10.941406 -32.828125 9.796875 -29.390625 C 8.648438 -25.960938 8.078125 -22.5625 8.078125 -19.1875 C 8.347656 -19.457031 8.445312 -19.554688 8.375 -19.484375 C 8.3125 -19.421875 8.550781 -19.660156 9.09375 -20.203125 L 10.703125 -22.625 C 11.785156 -24.238281 13.03125 -26.328125 14.4375 -28.890625 C 15.851562 -31.453125 17.300781 -34.046875 18.78125 -36.671875 C 20.269531 -39.296875 21.617188 -41.515625 22.828125 -43.328125 C 24.046875 -45.148438 24.988281 -46.0625 25.65625 -46.0625 C 28.082031 -46.0625 29.5 -45.1875 29.90625 -43.4375 C 30.3125 -41.6875 30.476562 -39.53125 30.40625 -36.96875 C 30.34375 -34.414062 30.578125 -31.859375 31.109375 -29.296875 C 31.921875 -25.660156 33.164062 -23 34.84375 -21.3125 C 36.53125 -19.632812 38.453125 -18.796875 40.609375 -18.796875 C 44.378906 -18.796875 48.554688 -21.082031 53.140625 -25.65625 C 55.023438 -27.40625 56.367188 -28.851562 57.171875 -30 C 57.984375 -31.144531 59.0625 -32.457031 60.40625 -33.9375 C 61.351562 -35.289062 62.566406 -35.96875 64.046875 -35.96875 C 65.523438 -35.96875 66.164062 -34.71875 65.96875 -32.21875 C 65.769531 -29.726562 63.109375 -25.992188 57.984375 -21.015625 L 51.921875 -16.15625 C 48.015625 -13.46875 44.242188 -12.125 40.609375 -12.125 C 37.242188 -12.125 34.3125 -13.132812 31.8125 -15.15625 C 29.320312 -17.175781 27.40625 -19.664062 26.0625 -22.625 C 24.71875 -25.59375 24.046875 -28.488281 24.046875 -31.3125 C 23.097656 -30.644531 22.019531 -29.164062 20.8125 -26.875 C 19.601562 -24.582031 18.289062 -22.125 16.875 -19.5 C 15.457031 -16.875 14.003906 -14.582031 12.515625 -12.625 C 11.035156 -10.675781 9.554688 -9.703125 8.078125 -9.703125 C 4.304688 -9.703125 2.015625 -10.578125 1.203125 -12.328125 C 0.398438 -14.078125 0 -16.769531 0 -20.40625 Z M 0 -20.40625 "/></g></g></g><g fill="#004aad" fill-opacity="1"><g transform="translate(341.413049, 268.030087)"><g><path d="M 5.65625 -10.5 C 3.09375 -10.5 1.441406 -12.046875 0.703125 -15.140625 C -0.0351562 -18.242188 -0.132812 -22.117188 0.40625 -26.765625 C 0.945312 -31.410156 1.921875 -36.054688 3.328125 -40.703125 C 4.742188 -45.359375 6.328125 -49.234375 8.078125 -52.328125 C 9.828125 -55.429688 11.445312 -56.984375 12.9375 -56.984375 C 15.21875 -56.984375 16.289062 -55.9375 16.15625 -53.84375 C 16.03125 -51.757812 15.359375 -49 14.140625 -45.5625 C 12.929688 -42.125 11.71875 -38.347656 10.5 -34.234375 C 9.289062 -30.128906 8.6875 -26.125 8.6875 -22.21875 L 18.390625 -36.96875 C 18.796875 -37.78125 19.671875 -39.195312 21.015625 -41.21875 C 22.359375 -43.238281 23.867188 -45.125 25.546875 -46.875 C 27.234375 -48.625 28.890625 -49.5 30.515625 -49.5 C 32.128906 -49.5 33.40625 -48.421875 34.34375 -46.265625 L 35.5625 -34.953125 C 35.5625 -33.742188 35.628906 -31.859375 35.765625 -29.296875 C 35.898438 -26.734375 36.203125 -24.140625 36.671875 -21.515625 C 37.140625 -18.890625 37.910156 -16.632812 38.984375 -14.75 C 40.066406 -12.863281 41.550781 -11.921875 43.4375 -11.921875 C 45.457031 -11.921875 47.578125 -13.128906 49.796875 -15.546875 C 52.023438 -17.972656 54.179688 -20.769531 56.265625 -23.9375 C 58.359375 -27.101562 60.242188 -29.898438 61.921875 -32.328125 C 63.609375 -34.753906 64.925781 -35.96875 65.875 -35.96875 C 67.882812 -35.96875 68.820312 -35.191406 68.6875 -33.640625 C 68.5625 -32.085938 67.890625 -30.300781 66.671875 -28.28125 C 65.460938 -26.257812 64.21875 -24.375 62.9375 -22.625 C 61.65625 -20.875 60.878906 -19.796875 60.609375 -19.390625 C 59.671875 -18.179688 58.390625 -16.632812 56.765625 -14.75 C 55.148438 -12.863281 53.46875 -11.113281 51.71875 -9.5 C 49.96875 -7.882812 48.285156 -6.875 46.671875 -6.46875 C 45.328125 -6.0625 44.046875 -5.859375 42.828125 -5.859375 C 39.734375 -5.859375 37.273438 -7.003906 35.453125 -9.296875 C 33.640625 -11.585938 32.257812 -14.078125 31.3125 -16.765625 C 29.96875 -20.804688 29.226562 -24.410156 29.09375 -27.578125 C 28.957031 -30.742188 28.957031 -33.4375 29.09375 -35.65625 C 29.226562 -37.882812 28.957031 -39.601562 28.28125 -40.8125 C 26.664062 -39.738281 24.945312 -37.582031 23.125 -34.34375 C 21.3125 -31.113281 19.425781 -27.644531 17.46875 -23.9375 C 15.519531 -20.238281 13.566406 -17.070312 11.609375 -14.4375 C 9.660156 -11.8125 7.675781 -10.5 5.65625 -10.5 Z M 5.65625 -10.5 "/></g></g></g><g fill="#004aad" fill-opacity="1"><g transform="translate(402.022176, 268.030087)"><g><path d="M 10.109375 -4.640625 C 12.128906 -5.179688 13.945312 -6.96875 15.5625 -10 C 17.175781 -13.03125 18.316406 -16.5 18.984375 -20.40625 C 19.660156 -24.3125 19.832031 -27.914062 19.5 -31.21875 C 19.164062 -34.519531 18.117188 -36.773438 16.359375 -37.984375 C 15.960938 -36.503906 15.222656 -34.382812 14.140625 -31.625 C 13.066406 -28.863281 12.023438 -25.832031 11.015625 -22.53125 C 10.003906 -19.226562 9.328125 -15.992188 8.984375 -12.828125 C 8.648438 -9.660156 9.023438 -6.929688 10.109375 -4.640625 Z M 0 -11.515625 C 0 -13.265625 0.367188 -15.859375 1.109375 -19.296875 C 1.847656 -22.734375 2.890625 -26.4375 4.234375 -30.40625 C 5.585938 -34.382812 7.101562 -38.15625 8.78125 -41.71875 C 10.46875 -45.289062 12.285156 -48.222656 14.234375 -50.515625 C 16.191406 -52.804688 18.179688 -53.953125 20.203125 -53.953125 C 21.546875 -53.953125 22.488281 -53.34375 23.03125 -52.125 C 23.570312 -50.914062 23.707031 -49.90625 23.4375 -49.09375 C 23.164062 -48.425781 22.660156 -47.753906 21.921875 -47.078125 C 21.179688 -46.398438 20.539062 -45.660156 20 -44.859375 C 20.269531 -43.910156 20.941406 -42.863281 22.015625 -41.71875 C 23.097656 -40.570312 24.175781 -39.054688 25.25 -37.171875 C 26.332031 -35.285156 27.039062 -32.726562 27.375 -29.5 C 27.707031 -26.269531 27.335938 -22.023438 26.265625 -16.765625 C 24.785156 -9.765625 22.425781 -4.507812 19.1875 -1 C 15.957031 2.5 12.796875 4.25 9.703125 4.25 C 7.140625 4.25 4.878906 2.929688 2.921875 0.296875 C 0.972656 -2.328125 0 -6.265625 0 -11.515625 Z M 0 -11.515625 "/></g></g></g><g fill="#004aad" fill-opacity="1"><g transform="translate(437.579507, 268.030087)"><g><path d="M 0.40625 -15.5625 C 0.40625 -22.289062 0.804688 -29.5625 1.609375 -37.375 C 2.421875 -45.1875 3.5 -52.929688 4.84375 -60.609375 C 6.195312 -68.285156 7.679688 -75.222656 9.296875 -81.421875 C 9.960938 -83.441406 10.632812 -85.695312 11.3125 -88.1875 C 11.988281 -90.6875 12.863281 -92.84375 13.9375 -94.65625 C 15.019531 -96.476562 16.4375 -97.390625 18.1875 -97.390625 C 19.800781 -97.390625 20.8125 -96.78125 21.21875 -95.5625 C 21.625 -94.351562 21.65625 -92.90625 21.3125 -91.21875 C 20.976562 -89.539062 20.539062 -87.992188 20 -86.578125 C 19.457031 -85.160156 19.125 -84.179688 19 -83.640625 C 17.914062 -79.609375 16.664062 -74.125 15.25 -67.1875 C 13.84375 -60.25 12.5 -52.671875 11.21875 -44.453125 C 9.9375 -36.234375 8.957031 -28.082031 8.28125 -20 C 7.613281 -11.914062 7.476562 -4.609375 7.875 1.921875 C 8.28125 8.453125 9.359375 13.46875 11.109375 16.96875 C 13.398438 15.757812 15.285156 13.941406 16.765625 11.515625 C 18.253906 9.085938 19.535156 6.726562 20.609375 4.4375 C 23.703125 -1.476562 26.726562 -7.738281 29.6875 -14.34375 C 32.65625 -20.945312 35.757812 -27.144531 39 -32.9375 C 40.070312 -35.09375 41.21875 -36.171875 42.4375 -36.171875 C 42.96875 -36.171875 43.398438 -35.929688 43.734375 -35.453125 C 44.078125 -34.984375 44.25 -34.476562 44.25 -33.9375 C 44.25 -33.539062 43.707031 -32.265625 42.625 -30.109375 C 41.550781 -27.953125 40.441406 -25.726562 39.296875 -23.4375 C 38.148438 -21.144531 37.375 -19.664062 36.96875 -19 C 35.625 -16.164062 34.109375 -12.863281 32.421875 -9.09375 C 30.742188 -5.320312 29.09375 -1.617188 27.46875 2.015625 C 25.851562 5.648438 24.304688 8.75 22.828125 11.3125 C 22.160156 12.394531 21.253906 13.84375 20.109375 15.65625 C 18.960938 17.476562 17.710938 19.0625 16.359375 20.40625 C 15.015625 21.75 13.46875 22.421875 11.71875 22.421875 C 9.019531 22.421875 6.894531 21.070312 5.34375 18.375 C 3.800781 15.6875 2.691406 12.320312 2.015625 8.28125 C 1.347656 4.238281 0.910156 0.0664062 0.703125 -4.234375 C 0.503906 -8.546875 0.40625 -12.320312 0.40625 -15.5625 Z M 0.40625 -15.5625 "/></g></g></g><g fill="#004aad" fill-opacity="1"><g transform="translate(473.136873, 268.030087)"><g><path d="M 10.109375 -4.640625 C 12.128906 -5.179688 13.945312 -6.96875 15.5625 -10 C 17.175781 -13.03125 18.316406 -16.5 18.984375 -20.40625 C 19.660156 -24.3125 19.832031 -27.914062 19.5 -31.21875 C 19.164062 -34.519531 18.117188 -36.773438 16.359375 -37.984375 C 15.960938 -36.503906 15.222656 -34.382812 14.140625 -31.625 C 13.066406 -28.863281 12.023438 -25.832031 11.015625 -22.53125 C 10.003906 -19.226562 9.328125 -15.992188 8.984375 -12.828125 C 8.648438 -9.660156 9.023438 -6.929688 10.109375 -4.640625 Z M 0 -11.515625 C 0 -13.265625 0.367188 -15.859375 1.109375 -19.296875 C 1.847656 -22.734375 2.890625 -26.4375 4.234375 -30.40625 C 5.585938 -34.382812 7.101562 -38.15625 8.78125 -41.71875 C 10.46875 -45.289062 12.285156 -48.222656 14.234375 -50.515625 C 16.191406 -52.804688 18.179688 -53.953125 20.203125 -53.953125 C 21.546875 -53.953125 22.488281 -53.34375 23.03125 -52.125 C 23.570312 -50.914062 23.707031 -49.90625 23.4375 -49.09375 C 23.164062 -48.425781 22.660156 -47.753906 21.921875 -47.078125 C 21.179688 -46.398438 20.539062 -45.660156 20 -44.859375 C 20.269531 -43.910156 20.941406 -42.863281 22.015625 -41.71875 C 23.097656 -40.570312 24.175781 -39.054688 25.25 -37.171875 C 26.332031 -35.285156 27.039062 -32.726562 27.375 -29.5 C 27.707031 -26.269531 27.335938 -22.023438 26.265625 -16.765625 C 24.785156 -9.765625 22.425781 -4.507812 19.1875 -1 C 15.957031 2.5 12.796875 4.25 9.703125 4.25 C 7.140625 4.25 4.878906 2.929688 2.921875 0.296875 C 0.972656 -2.328125 0 -6.265625 0 -11.515625 Z M 0 -11.515625 "/></g></g></g><g fill="#004aad" fill-opacity="1"><g transform="translate(276.784385, 317.267084)"><g><path d="M 19.390625 -26.71875 L 19.390625 -23.875 L 12.109375 -23.875 L 12.109375 0 L 8.625 0 L 8.625 -23.875 L 1.296875 -23.875 L 1.296875 -26.71875 Z M 19.390625 -26.71875 "/></g></g></g><g fill="#004aad" fill-opacity="1"><g transform="translate(318.603916, 317.267084)"><g><path d="M 15.0625 0.265625 C 12.582031 0.265625 10.320312 -0.3125 8.28125 -1.46875 C 6.238281 -2.632812 4.617188 -4.257812 3.421875 -6.34375 C 2.234375 -8.425781 1.640625 -10.769531 1.640625 -13.375 C 1.640625 -15.976562 2.234375 -18.320312 3.421875 -20.40625 C 4.617188 -22.488281 6.238281 -24.109375 8.28125 -25.265625 C 10.320312 -26.429688 12.582031 -27.015625 15.0625 -27.015625 C 17.5625 -27.015625 19.832031 -26.429688 21.875 -25.265625 C 23.925781 -24.109375 25.539062 -22.492188 26.71875 -20.421875 C 27.894531 -18.359375 28.484375 -16.007812 28.484375 -13.375 C 28.484375 -10.738281 27.894531 -8.382812 26.71875 -6.3125 C 25.539062 -4.25 23.925781 -2.632812 21.875 -1.46875 C 19.832031 -0.3125 17.5625 0.265625 15.0625 0.265625 Z M 15.0625 -2.765625 C 16.925781 -2.765625 18.601562 -3.195312 20.09375 -4.0625 C 21.59375 -4.925781 22.769531 -6.160156 23.625 -7.765625 C 24.476562 -9.378906 24.90625 -11.25 24.90625 -13.375 C 24.90625 -15.519531 24.476562 -17.390625 23.625 -18.984375 C 22.769531 -20.585938 21.601562 -21.820312 20.125 -22.6875 C 18.644531 -23.5625 16.957031 -24 15.0625 -24 C 13.175781 -24 11.488281 -23.5625 10 -22.6875 C 8.519531 -21.820312 7.351562 -20.585938 6.5 -18.984375 C 5.644531 -17.390625 5.21875 -15.519531 5.21875 -13.375 C 5.21875 -11.25 5.644531 -9.378906 6.5 -7.765625 C 7.351562 -6.160156 8.523438 -4.925781 10.015625 -4.0625 C 11.515625 -3.195312 13.195312 -2.765625 15.0625 -2.765625 Z M 15.0625 -2.765625 "/></g></g></g><g fill="#004aad" fill-opacity="1"><g transform="translate(369.813862, 317.267084)"><g><path d="M 17.015625 0 L 10.65625 -10.921875 L 6.4375 -10.921875 L 6.4375 0 L 2.953125 0 L 2.953125 -26.71875 L 11.578125 -26.71875 C 13.597656 -26.71875 15.300781 -26.367188 16.6875 -25.671875 C 18.082031 -24.984375 19.125 -24.050781 19.8125 -22.875 C 20.5 -21.707031 20.84375 -20.367188 20.84375 -18.859375 C 20.84375 -17.015625 20.3125 -15.390625 19.25 -13.984375 C 18.195312 -12.578125 16.609375 -11.644531 14.484375 -11.1875 L 21.203125 0 Z M 6.4375 -13.71875 L 11.578125 -13.71875 C 13.460938 -13.71875 14.878906 -14.179688 15.828125 -15.109375 C 16.773438 -16.046875 17.25 -17.296875 17.25 -18.859375 C 17.25 -20.441406 16.78125 -21.664062 15.84375 -22.53125 C 14.914062 -23.40625 13.492188 -23.84375 11.578125 -23.84375 L 6.4375 -23.84375 Z M 6.4375 -13.71875 "/></g></g></g><g fill="#004aad" fill-opacity="1"><g transform="translate(414.20139, 317.267084)"><g><path d="M 17.015625 0 L 10.65625 -10.921875 L 6.4375 -10.921875 L 6.4375 0 L 2.953125 0 L 2.953125 -26.71875 L 11.578125 -26.71875 C 13.597656 -26.71875 15.300781 -26.367188 16.6875 -25.671875 C 18.082031 -24.984375 19.125 -24.050781 19.8125 -22.875 C 20.5 -21.707031 20.84375 -20.367188 20.84375 -18.859375 C 20.84375 -17.015625 20.3125 -15.390625 19.25 -13.984375 C 18.195312 -12.578125 16.609375 -11.644531 14.484375 -11.1875 L 21.203125 0 Z M 6.4375 -13.71875 L 11.578125 -13.71875 C 13.460938 -13.71875 14.878906 -14.179688 15.828125 -15.109375 C 16.773438 -16.046875 17.25 -17.296875 17.25 -18.859375 C 17.25 -20.441406 16.78125 -21.664062 15.84375 -22.53125 C 14.914062 -23.40625 13.492188 -23.84375 11.578125 -23.84375 L 6.4375 -23.84375 Z M 6.4375 -13.71875 "/></g></g></g><g fill="#004aad" fill-opacity="1"><g transform="translate(458.58891, 317.267084)"><g><path d="M 6.4375 -23.875 L 6.4375 -14.953125 L 16.171875 -14.953125 L 16.171875 -12.078125 L 6.4375 -12.078125 L 6.4375 -2.875 L 17.328125 -2.875 L 17.328125 0 L 2.953125 0 L 2.953125 -26.75 L 17.328125 -26.75 L 17.328125 -23.875 Z M 6.4375 -23.875 "/></g></g></g><g fill="#004aad" fill-opacity="1"><g transform="translate(499.335262, 317.267084)"><g><path d="M 11.421875 0.265625 C 9.660156 0.265625 8.082031 -0.046875 6.6875 -0.671875 C 5.289062 -1.296875 4.195312 -2.160156 3.40625 -3.265625 C 2.613281 -4.378906 2.207031 -5.664062 2.1875 -7.125 L 5.90625 -7.125 C 6.03125 -5.875 6.546875 -4.820312 7.453125 -3.96875 C 8.359375 -3.113281 9.679688 -2.6875 11.421875 -2.6875 C 13.078125 -2.6875 14.382812 -3.097656 15.34375 -3.921875 C 16.300781 -4.753906 16.78125 -5.820312 16.78125 -7.125 C 16.78125 -8.144531 16.5 -8.972656 15.9375 -9.609375 C 15.375 -10.253906 14.671875 -10.742188 13.828125 -11.078125 C 12.992188 -11.410156 11.859375 -11.769531 10.421875 -12.15625 C 8.660156 -12.613281 7.25 -13.070312 6.1875 -13.53125 C 5.125 -13.988281 4.21875 -14.707031 3.46875 -15.6875 C 2.71875 -16.675781 2.34375 -18 2.34375 -19.65625 C 2.34375 -21.113281 2.710938 -22.40625 3.453125 -23.53125 C 4.191406 -24.65625 5.226562 -25.523438 6.5625 -26.140625 C 7.90625 -26.753906 9.445312 -27.0625 11.1875 -27.0625 C 13.695312 -27.0625 15.75 -26.429688 17.34375 -25.171875 C 18.9375 -23.921875 19.835938 -22.265625 20.046875 -20.203125 L 16.21875 -20.203125 C 16.082031 -21.222656 15.539062 -22.117188 14.59375 -22.890625 C 13.65625 -23.671875 12.40625 -24.0625 10.84375 -24.0625 C 9.382812 -24.0625 8.195312 -23.6875 7.28125 -22.9375 C 6.363281 -22.1875 5.90625 -21.132812 5.90625 -19.78125 C 5.90625 -18.8125 6.175781 -18.019531 6.71875 -17.40625 C 7.269531 -16.789062 7.945312 -16.320312 8.75 -16 C 9.5625 -15.675781 10.695312 -15.3125 12.15625 -14.90625 C 13.914062 -14.425781 15.332031 -13.945312 16.40625 -13.46875 C 17.476562 -13 18.394531 -12.269531 19.15625 -11.28125 C 19.925781 -10.300781 20.3125 -8.96875 20.3125 -7.28125 C 20.3125 -5.976562 19.96875 -4.75 19.28125 -3.59375 C 18.59375 -2.445312 17.570312 -1.515625 16.21875 -0.796875 C 14.863281 -0.0859375 13.265625 0.265625 11.421875 0.265625 Z M 11.421875 0.265625 "/></g></g></g></svg>